<mxfile host="app.diagrams.net" agent="Mozilla/5.0 (Windows NT 10.0; Win64; x64) AppleWebKit/537.36 (KHTML, like Gecko) Chrome/138.0.0.0 Safari/537.36 Edg/138.0.0.0" version="28.0.7">
  <diagram name="第 1 页" id="mGag0fccRs4ltHQs1HoU">
    <mxGraphModel dx="1586" dy="1038" grid="1" gridSize="10" guides="1" tooltips="1" connect="1" arrows="1" fold="1" page="1" pageScale="1" pageWidth="827" pageHeight="1169" math="0" shadow="0">
      <root>
        <mxCell id="0" />
        <mxCell id="1" parent="0" />
        <mxCell id="tSk-btpLn09C0enWPSId-1" value="Backend" style="rounded=1;whiteSpace=wrap;html=1;" parent="1" vertex="1">
          <mxGeometry x="250" y="240" width="120" height="60" as="geometry" />
        </mxCell>
        <mxCell id="tSk-btpLn09C0enWPSId-2" value="" style="endArrow=classic;html=1;rounded=0;exitX=1;exitY=0.5;exitDx=0;exitDy=0;entryX=0;entryY=0.5;entryDx=0;entryDy=0;" parent="1" source="tSk-btpLn09C0enWPSId-1" target="tSk-btpLn09C0enWPSId-3" edge="1">
          <mxGeometry width="50" height="50" relative="1" as="geometry">
            <mxPoint x="650" y="310" as="sourcePoint" />
            <mxPoint x="600" y="270" as="targetPoint" />
          </mxGeometry>
        </mxCell>
        <mxCell id="tSk-btpLn09C0enWPSId-4" value="Reset Signal (http/POST launcher_url/reset)" style="edgeLabel;html=1;align=center;verticalAlign=middle;resizable=0;points=[];" parent="tSk-btpLn09C0enWPSId-2" vertex="1" connectable="0">
          <mxGeometry x="-0.0835" y="-2" relative="1" as="geometry">
            <mxPoint x="3" y="-12" as="offset" />
          </mxGeometry>
        </mxCell>
        <mxCell id="tSk-btpLn09C0enWPSId-5" value="&lt;div style=&quot;color: rgb(252, 252, 250); background-color: rgb(45, 42, 46); font-family: Consolas, &amp;quot;Courier New&amp;quot;, monospace; white-space-collapse: preserve; line-height: 100%;&quot;&gt;&lt;div&gt;&lt;font style=&quot;font-size: 9px; line-height: 100%;&quot;&gt;&lt;span style=&quot;color: rgb(120, 220, 232); font-style: italic;&quot;&gt;class&lt;/span&gt; &lt;span style=&quot;color: rgb(120, 220, 232);&quot;&gt;_SignalPayload&lt;/span&gt;&lt;span style=&quot;color: rgb(147, 146, 147);&quot;&gt;(&lt;/span&gt;&lt;span style=&quot;color: rgb(120, 220, 232); font-style: italic;&quot;&gt;BaseModel&lt;/span&gt;&lt;span style=&quot;color: rgb(147, 146, 147);&quot;&gt;):&lt;/span&gt;&lt;/font&gt;&lt;/div&gt;&lt;div&gt;&lt;font style=&quot;font-size: 9px; line-height: 100%;&quot;&gt;&amp;nbsp; &amp;nbsp; backend_url&lt;span style=&quot;color: rgb(147, 146, 147);&quot;&gt;:&lt;/span&gt; &lt;span style=&quot;color: rgb(120, 220, 232); font-style: italic;&quot;&gt;str&lt;/span&gt;&lt;/font&gt;&lt;/div&gt;&lt;div&gt;&lt;font style=&quot;font-size: 9px; line-height: 100%;&quot;&gt;&amp;nbsp; &amp;nbsp; signal&lt;span style=&quot;color: rgb(147, 146, 147);&quot;&gt;:&lt;/span&gt; &lt;span style=&quot;color: rgb(120, 220, 232); font-style: italic;&quot;&gt;str&lt;/span&gt;&lt;/font&gt;&lt;/div&gt;&lt;div&gt;&lt;font style=&quot;font-size: 9px; line-height: 100%;&quot;&gt;&amp;nbsp; &amp;nbsp; agent_id&lt;span style=&quot;color: rgb(147, 146, 147);&quot;&gt;:&lt;/span&gt; &lt;span style=&quot;color: rgb(120, 220, 232); font-style: italic;&quot;&gt;str&lt;/span&gt;&lt;/font&gt;&lt;/div&gt;&lt;div&gt;&lt;font style=&quot;font-size: 9px; line-height: 100%;&quot;&gt;&amp;nbsp; &amp;nbsp; extra_args&lt;span style=&quot;color: rgb(147, 146, 147);&quot;&gt;:&lt;/span&gt; Optional&lt;span style=&quot;color: rgb(147, 146, 147);&quot;&gt;[&lt;/span&gt;&lt;span style=&quot;color: rgb(120, 220, 232); font-style: italic;&quot;&gt;dict&lt;/span&gt;&lt;span style=&quot;color: rgb(147, 146, 147);&quot;&gt;]&lt;/span&gt; &lt;span style=&quot;color: rgb(255, 97, 136);&quot;&gt;=&lt;/span&gt; &lt;span style=&quot;color: rgb(171, 157, 242);&quot;&gt;None&lt;/span&gt;&lt;/font&gt;&lt;/div&gt;&lt;/div&gt;" style="edgeLabel;html=1;align=left;verticalAlign=middle;resizable=0;points=[];" parent="tSk-btpLn09C0enWPSId-2" vertex="1" connectable="0">
          <mxGeometry x="-0.0835" relative="1" as="geometry">
            <mxPoint x="-87" y="-50" as="offset" />
          </mxGeometry>
        </mxCell>
        <mxCell id="tSk-btpLn09C0enWPSId-11" style="edgeStyle=orthogonalEdgeStyle;rounded=0;orthogonalLoop=1;jettySize=auto;html=1;exitX=0;exitY=0.75;exitDx=0;exitDy=0;entryX=1;entryY=0.75;entryDx=0;entryDy=0;" parent="1" source="tSk-btpLn09C0enWPSId-3" target="tSk-btpLn09C0enWPSId-1" edge="1">
          <mxGeometry relative="1" as="geometry" />
        </mxCell>
        <mxCell id="tSk-btpLn09C0enWPSId-12" value="Reset OK (http/PUT backend_url/agents/agent_id)" style="edgeLabel;html=1;align=center;verticalAlign=middle;resizable=0;points=[];" parent="tSk-btpLn09C0enWPSId-11" vertex="1" connectable="0">
          <mxGeometry x="0.1195" relative="1" as="geometry">
            <mxPoint x="17" y="12" as="offset" />
          </mxGeometry>
        </mxCell>
        <mxCell id="tSk-btpLn09C0enWPSId-3" value="Agent Launcher" style="rounded=1;whiteSpace=wrap;html=1;" parent="1" vertex="1">
          <mxGeometry x="650" y="240" width="120" height="60" as="geometry" />
        </mxCell>
        <mxCell id="tSk-btpLn09C0enWPSId-7" value="&lt;h1 style=&quot;margin-top: 0px;&quot;&gt;Agent Memory&lt;/h1&gt;" style="text;html=1;whiteSpace=wrap;overflow=hidden;rounded=0;fontSize=10;align=center;fillColor=#f5f5f5;fontColor=#333333;strokeColor=#666666;" parent="1" vertex="1">
          <mxGeometry x="830" y="170" width="250" height="40" as="geometry" />
        </mxCell>
        <mxCell id="tSk-btpLn09C0enWPSId-9" value="&lt;div style=&quot;color: rgb(252, 252, 250); font-family: Consolas, &amp;quot;Courier New&amp;quot;, monospace; font-size: 11px; text-align: left; white-space: pre; background-color: rgb(45, 42, 46);&quot;&gt;&lt;font style=&quot;font-size: 9px;&quot;&gt;&lt;span style=&quot;color: rgb(255, 97, 136);&quot;&gt;&lt;span style=&quot;color: rgb(147, 146, 147); background-color: light-dark(rgb(45, 42, 46), rgb(202, 199, 202));&quot;&gt;&quot;&lt;/span&gt;&lt;span style=&quot;color: rgb(255, 216, 102); background-color: light-dark(rgb(45, 42, 46), rgb(202, 199, 202));&quot;&gt;role&lt;/span&gt;&lt;span style=&quot;color: rgb(147, 146, 147); background-color: light-dark(rgb(45, 42, 46), rgb(202, 199, 202));&quot;&gt;&quot;&lt;/span&gt;&lt;span style=&quot;color: rgb(147, 146, 147); background-color: light-dark(rgb(45, 42, 46), rgb(202, 199, 202));&quot;&gt;:&lt;/span&gt;&lt;span style=&quot;color: light-dark(rgb(252, 252, 250), rgb(20, 20, 18)); background-color: light-dark(rgb(45, 42, 46), rgb(202, 199, 202));&quot;&gt; &lt;/span&gt;&lt;span style=&quot;color: rgb(147, 146, 147); background-color: light-dark(rgb(45, 42, 46), rgb(202, 199, 202));&quot;&gt;&quot;&lt;/span&gt;&lt;/span&gt;&lt;/font&gt;&lt;span style=&quot;color: rgb(255, 216, 102); font-size: 9px;&quot;&gt;system&lt;/span&gt;&lt;span style=&quot;font-size: 9px; color: rgb(147, 146, 147); background-color: light-dark(rgb(45, 42, 46), rgb(202, 199, 202));&quot;&gt;&quot;&lt;/span&gt;&lt;span style=&quot;font-size: 9px; color: rgb(147, 146, 147); background-color: light-dark(rgb(45, 42, 46), rgb(202, 199, 202));&quot;&gt;,&lt;/span&gt;&lt;/div&gt;&lt;div style=&quot;color: rgb(252, 252, 250); font-family: Consolas, &amp;quot;Courier New&amp;quot;, monospace; font-size: 11px; text-align: left; white-space: pre; background-color: rgb(45, 42, 46);&quot;&gt;&lt;font style=&quot;color: light-dark(rgb(252, 252, 250), rgb(20, 20, 18)); font-size: 9px;&quot;&gt;&lt;span style=&quot;color: rgb(255, 97, 136);&quot;&gt;&lt;span style=&quot;color: rgb(147, 146, 147); background-color: light-dark(rgb(45, 42, 46), rgb(202, 199, 202));&quot;&gt;&lt;span style=&quot;color: rgb(147, 146, 147); background-color: light-dark(rgb(45, 42, 46), rgb(202, 199, 202));&quot;&gt;&quot;&lt;/span&gt;&lt;/span&gt;&lt;/span&gt;&lt;/font&gt;&lt;span style=&quot;color: rgb(255, 216, 102); font-size: 9px;&quot;&gt;content&lt;/span&gt;&lt;font style=&quot;color: light-dark(rgb(252, 252, 250), rgb(20, 20, 18)); font-size: 9px;&quot;&gt;&lt;span style=&quot;color: rgb(255, 97, 136);&quot;&gt;&lt;span style=&quot;color: rgb(147, 146, 147); background-color: light-dark(rgb(45, 42, 46), rgb(202, 199, 202));&quot;&gt;&lt;span style=&quot;color: rgb(147, 146, 147); background-color: light-dark(rgb(45, 42, 46), rgb(202, 199, 202));&quot;&gt;&quot;&lt;/span&gt;:&lt;/span&gt;&lt;span style=&quot;color: rgb(252, 252, 250); background-color: light-dark(rgb(45, 42, 46), rgb(202, 199, 202));&quot;&gt; &lt;/span&gt;&lt;/span&gt;&lt;/font&gt;&lt;span style=&quot;color: rgb(147, 146, 147); font-size: 9px;&quot;&gt;&quot;&quot;&quot;&lt;/span&gt;&lt;/div&gt;&lt;div style=&quot;color: light-dark(rgb(252, 252, 250), rgb(20, 20, 18)); font-family: Consolas, &amp;quot;Courier New&amp;quot;, monospace; font-size: 11px; text-align: left; white-space: pre; background-color: rgb(45, 42, 46);&quot;&gt;&lt;font style=&quot;font-size: 9px;&quot;&gt;&amp;nbsp;   &lt;span style=&quot;color: rgb(147, 146, 147);&quot;&gt;&quot;&lt;/span&gt;&lt;span style=&quot;color: rgb(255, 216, 102);&quot;&gt;system_prompt&lt;/span&gt;&lt;span style=&quot;color: rgb(147, 146, 147);&quot;&gt;&quot;&lt;/span&gt;&lt;span style=&quot;color: rgb(147, 146, 147);&quot;&gt;:&lt;/span&gt; &lt;/font&gt;&lt;span style=&quot;font-size: 9px;&quot;&gt;agent_card&lt;/span&gt;&lt;span style=&quot;color: rgb(147, 146, 147); font-size: 9px;&quot;&gt;.&lt;/span&gt;&lt;span style=&quot;font-size: 9px;&quot;&gt;description&lt;/span&gt;&lt;span style=&quot;font-size: 9px; color: rgb(147, 146, 147);&quot;&gt;,&lt;/span&gt;&lt;/div&gt;&lt;div style=&quot;color: light-dark(rgb(252, 252, 250), rgb(20, 20, 18)); font-family: Consolas, &amp;quot;Courier New&amp;quot;, monospace; font-size: 11px; text-align: left; white-space: pre; background-color: rgb(45, 42, 46);&quot;&gt;&lt;font style=&quot;font-size: 9px;&quot;&gt;&amp;nbsp; &amp;nbsp; &lt;span style=&quot;color: rgb(147, 146, 147);&quot;&gt;&quot;&lt;/span&gt;&lt;span style=&quot;color: rgb(255, 216, 102);&quot;&gt;skills&lt;/span&gt;&lt;span style=&quot;color: rgb(147, 146, 147);&quot;&gt;&quot;&lt;/span&gt;&lt;span style=&quot;color: rgb(147, 146, 147);&quot;&gt;:&lt;/span&gt; agent_card&lt;/font&gt;&lt;span style=&quot;color: rgb(147, 146, 147); font-size: 9px;&quot;&gt;.&lt;/span&gt;&lt;span style=&quot;font-size: 9px; color: light-dark(rgb(252, 252, 250), rgb(20, 20, 18));&quot;&gt;skills&lt;/span&gt;&lt;span style=&quot;font-size: 9px; color: rgb(147, 146, 147);&quot;&gt;,&lt;/span&gt;&lt;/div&gt;&lt;div style=&quot;color: light-dark(rgb(252, 252, 250), rgb(20, 20, 18)); font-family: Consolas, &amp;quot;Courier New&amp;quot;, monospace; font-size: 11px; text-align: left; white-space: pre; background-color: rgb(45, 42, 46);&quot;&gt;&lt;font style=&quot;font-size: 9px;&quot;&gt;&lt;span style=&quot;color: rgb(147, 146, 147);&quot;&gt;&quot;&quot;&quot;&lt;/span&gt;&lt;/font&gt;&lt;/div&gt;" style="rounded=0;whiteSpace=wrap;html=1;" parent="1" vertex="1">
          <mxGeometry x="825" y="235" width="260" height="80" as="geometry" />
        </mxCell>
        <mxCell id="tSk-btpLn09C0enWPSId-13" value="&lt;div style=&quot;background-color: rgb(45, 42, 46); font-family: Consolas, &amp;quot;Courier New&amp;quot;, monospace; white-space-collapse: preserve; line-height: 100%; color: rgb(252, 252, 250);&quot;&gt;&lt;div style=&quot;line-height: 100%;&quot;&gt;&lt;div style=&quot;&quot;&gt;&lt;font style=&quot;font-size: 9px;&quot;&gt;requests&lt;span style=&quot;color: rgb(147, 146, 147);&quot;&gt;.&lt;/span&gt;&lt;span style=&quot;color: rgb(169, 220, 118);&quot;&gt;put&lt;/span&gt;&lt;span style=&quot;color: rgb(147, 146, 147);&quot;&gt;(&lt;/span&gt;&lt;/font&gt;&lt;/div&gt;&lt;div style=&quot;&quot;&gt;&lt;font style=&quot;font-size: 9px;&quot;&gt;&amp;nbsp; &amp;nbsp; &lt;span style=&quot;color: rgb(120, 220, 232); font-style: italic;&quot;&gt;f&lt;/span&gt;&lt;span style=&quot;color: rgb(255, 216, 102);&quot;&gt;&quot;&lt;/span&gt;&lt;span style=&quot;color: rgb(171, 157, 242);&quot;&gt;{&lt;/span&gt;payload&lt;span style=&quot;color: rgb(147, 146, 147);&quot;&gt;.&lt;/span&gt;backend_url&lt;span style=&quot;color: rgb(171, 157, 242);&quot;&gt;}&lt;/span&gt;&lt;span style=&quot;color: rgb(255, 216, 102);&quot;&gt;/agents/&lt;/span&gt;&lt;span style=&quot;color: rgb(171, 157, 242);&quot;&gt;{&lt;/span&gt;payload&lt;span style=&quot;color: rgb(147, 146, 147);&quot;&gt;.&lt;/span&gt;agent_id&lt;span style=&quot;color: rgb(171, 157, 242);&quot;&gt;}&lt;/span&gt;&lt;span style=&quot;color: rgb(255, 216, 102);&quot;&gt;&quot;&lt;/span&gt;&lt;span style=&quot;color: rgb(147, 146, 147);&quot;&gt;,&lt;/span&gt;&lt;/font&gt;&lt;/div&gt;&lt;div style=&quot;&quot;&gt;&lt;font style=&quot;font-size: 9px;&quot;&gt;&amp;nbsp; &amp;nbsp; &lt;span style=&quot;color: rgb(252, 152, 103); font-style: italic;&quot;&gt;json&lt;/span&gt;&lt;span style=&quot;color: rgb(255, 97, 136);&quot;&gt;=&lt;/span&gt;&lt;span style=&quot;color: rgb(147, 146, 147);&quot;&gt;{&lt;/span&gt;&lt;span style=&quot;color: rgb(147, 146, 147);&quot;&gt;&quot;&lt;/span&gt;&lt;span style=&quot;color: rgb(255, 216, 102);&quot;&gt;ready&lt;/span&gt;&lt;span style=&quot;color: rgb(147, 146, 147);&quot;&gt;&quot;&lt;/span&gt;&lt;span style=&quot;color: rgb(147, 146, 147);&quot;&gt;:&lt;/span&gt; &lt;span style=&quot;color: rgb(171, 157, 242);&quot;&gt;True&lt;/span&gt;&lt;span style=&quot;color: rgb(147, 146, 147);&quot;&gt;},&lt;/span&gt;&lt;/font&gt;&lt;/div&gt;&lt;div style=&quot;&quot;&gt;&lt;font style=&quot;font-size: 9px;&quot;&gt;&amp;nbsp; &amp;nbsp; &lt;span style=&quot;color: rgb(252, 152, 103); font-style: italic;&quot;&gt;timeout&lt;/span&gt;&lt;span style=&quot;color: rgb(255, 97, 136);&quot;&gt;=&lt;/span&gt;&lt;span style=&quot;color: rgb(171, 157, 242);&quot;&gt;5&lt;/span&gt;&lt;span style=&quot;color: rgb(147, 146, 147);&quot;&gt;,&lt;/span&gt;&lt;/font&gt;&lt;/div&gt;&lt;div style=&quot;&quot;&gt;&lt;span style=&quot;color: rgb(147, 146, 147);&quot;&gt;&lt;font style=&quot;font-size: 9px;&quot;&gt;)&lt;/font&gt;&lt;/span&gt;&lt;/div&gt;&lt;/div&gt;&lt;/div&gt;" style="edgeLabel;html=1;align=left;verticalAlign=middle;resizable=0;points=[];" parent="1" vertex="1" connectable="0">
          <mxGeometry x="380" y="334" as="geometry" />
        </mxCell>
        <mxCell id="tSk-btpLn09C0enWPSId-16" value="&lt;h1 style=&quot;margin-top: 0px;&quot;&gt;1. Reset&lt;/h1&gt;" style="text;html=1;whiteSpace=wrap;overflow=hidden;rounded=0;fillColor=#dae8fc;strokeColor=#6c8ebf;" parent="1" vertex="1">
          <mxGeometry x="60" y="250" width="160" height="40" as="geometry" />
        </mxCell>
        <mxCell id="tSk-btpLn09C0enWPSId-17" value="&lt;h1 style=&quot;margin-top: 0px;&quot;&gt;2. Battle_Info&lt;/h1&gt;" style="text;html=1;whiteSpace=wrap;overflow=hidden;rounded=0;fillColor=#dae8fc;strokeColor=#6c8ebf;" parent="1" vertex="1">
          <mxGeometry x="60" y="405" width="160" height="40" as="geometry" />
        </mxCell>
        <mxCell id="tSk-btpLn09C0enWPSId-18" value="Backend" style="rounded=1;whiteSpace=wrap;html=1;" parent="1" vertex="1">
          <mxGeometry x="250" y="409" width="120" height="60" as="geometry" />
        </mxCell>
        <mxCell id="tSk-btpLn09C0enWPSId-19" value="" style="endArrow=classic;html=1;rounded=0;exitX=1;exitY=0.5;exitDx=0;exitDy=0;entryX=0;entryY=0.5;entryDx=0;entryDy=0;" parent="1" source="tSk-btpLn09C0enWPSId-18" target="tSk-btpLn09C0enWPSId-24" edge="1">
          <mxGeometry width="50" height="50" relative="1" as="geometry">
            <mxPoint x="650" y="479" as="sourcePoint" />
            <mxPoint x="600" y="439" as="targetPoint" />
          </mxGeometry>
        </mxCell>
        <mxCell id="tSk-btpLn09C0enWPSId-20" value="Battle Info (A2A agent_url/)" style="edgeLabel;html=1;align=center;verticalAlign=middle;resizable=0;points=[];" parent="tSk-btpLn09C0enWPSId-19" vertex="1" connectable="0">
          <mxGeometry x="-0.0835" y="-2" relative="1" as="geometry">
            <mxPoint x="3" y="-12" as="offset" />
          </mxGeometry>
        </mxCell>
        <mxCell id="tSk-btpLn09C0enWPSId-21" value="&lt;div style=&quot;background-color: rgb(45, 42, 46); font-family: Consolas, &amp;quot;Courier New&amp;quot;, monospace; white-space-collapse: preserve; line-height: 100%; color: rgb(252, 252, 250);&quot;&gt;&lt;div style=&quot;&quot;&gt;&lt;div style=&quot;color: light-dark(rgb(252, 252, 250), rgb(20, 20, 18));&quot;&gt;&lt;font style=&quot;font-size: 9px; line-height: 100%;&quot;&gt;battle_info &lt;span style=&quot;color: rgb(255, 97, 136);&quot;&gt;=&lt;/span&gt; &lt;span style=&quot;color: rgb(147, 146, 147);&quot;&gt;{&lt;/span&gt;&lt;/font&gt;&lt;/div&gt;&lt;div style=&quot;&quot;&gt;&lt;font style=&quot;font-size: 9px; line-height: 100%;&quot;&gt;&lt;font color=&quot;#fcfcfa&quot;&gt;    &lt;/font&gt;&lt;span style=&quot;color: rgb(147, 146, 147);&quot;&gt;&quot;&lt;/span&gt;&lt;span style=&quot;color: rgb(255, 216, 102);&quot;&gt;type&lt;/span&gt;&lt;span style=&quot;color: rgb(147, 146, 147);&quot;&gt;&quot;&lt;/span&gt;&lt;span style=&quot;color: rgb(147, 146, 147);&quot;&gt;:&lt;/span&gt;&lt;font color=&quot;rgba(0, 0, 0, 0)&quot;&gt; &lt;/font&gt;&lt;span style=&quot;color: rgb(147, 146, 147);&quot;&gt;&quot;&lt;/span&gt;&lt;span style=&quot;color: rgb(255, 216, 102);&quot;&gt;battle_info&lt;/span&gt;&lt;span style=&quot;color: rgb(147, 146, 147);&quot;&gt;&quot;&lt;/span&gt;&lt;span style=&quot;color: rgb(147, 146, 147);&quot;&gt;,&lt;/span&gt;&lt;/font&gt;&lt;/div&gt;&lt;div style=&quot;color: light-dark(rgb(252, 252, 250), rgb(20, 20, 18));&quot;&gt;&lt;font style=&quot;font-size: 9px; line-height: 100%;&quot;&gt;&amp;nbsp;   &lt;span style=&quot;color: #939293;&quot;&gt;&quot;&lt;/span&gt;&lt;span style=&quot;color: #ffd866;&quot;&gt;battle_id&lt;/span&gt;&lt;span style=&quot;color: #939293;&quot;&gt;&quot;&lt;/span&gt;&lt;span style=&quot;color: #939293;&quot;&gt;:&lt;/span&gt; battle_id&lt;span style=&quot;color: #939293;&quot;&gt;,&lt;/span&gt;&lt;/font&gt;&lt;/div&gt;&lt;div style=&quot;color: light-dark(rgb(252, 252, 250), rgb(20, 20, 18));&quot;&gt;&lt;font style=&quot;font-size: 9px; line-height: 100%;&quot;&gt;&amp;nbsp; &amp;nbsp; &lt;span style=&quot;color: #939293;&quot;&gt;&quot;&lt;/span&gt;&lt;span style=&quot;color: #ffd866;&quot;&gt;agent_name&lt;/span&gt;&lt;span style=&quot;color: #939293;&quot;&gt;&quot;&lt;/span&gt;&lt;span style=&quot;color: #939293;&quot;&gt;:&lt;/span&gt; agent_name&lt;span style=&quot;color: #939293;&quot;&gt;,&lt;/span&gt;&lt;/font&gt;&lt;/div&gt;&lt;div style=&quot;color: light-dark(rgb(252, 252, 250), rgb(20, 20, 18));&quot;&gt;&lt;font style=&quot;font-size: 9px; line-height: 100%;&quot;&gt;&amp;nbsp; &amp;nbsp; &lt;span style=&quot;color: #939293;&quot;&gt;&quot;&lt;/span&gt;&lt;span style=&quot;color: #ffd866;&quot;&gt;agent_id&lt;/span&gt;&lt;span style=&quot;color: #939293;&quot;&gt;&quot;&lt;/span&gt;&lt;span style=&quot;color: #939293;&quot;&gt;:&lt;/span&gt; agent_id&lt;span style=&quot;color: #939293;&quot;&gt;,&lt;/span&gt;&lt;/font&gt;&lt;/div&gt;&lt;div style=&quot;color: light-dark(rgb(252, 252, 250), rgb(20, 20, 18));&quot;&gt;&lt;font style=&quot;font-size: 9px; line-height: 100%;&quot;&gt;&amp;nbsp; &amp;nbsp; &lt;span style=&quot;color: #939293;&quot;&gt;&quot;&lt;/span&gt;&lt;span style=&quot;color: #ffd866;&quot;&gt;backend_url&lt;/span&gt;&lt;span style=&quot;color: #939293;&quot;&gt;&quot;&lt;/span&gt;&lt;span style=&quot;color: #939293;&quot;&gt;:&lt;/span&gt; backend_url&lt;span style=&quot;color: #939293;&quot;&gt;,&lt;/span&gt;&lt;/font&gt;&lt;/div&gt;&lt;div style=&quot;color: light-dark(rgb(252, 252, 250), rgb(20, 20, 18));&quot;&gt;&lt;font style=&quot;font-size: 9px; line-height: 100%;&quot;&gt;&lt;span style=&quot;color: rgb(147, 146, 147);&quot;&gt;}&lt;/span&gt;&lt;/font&gt;&lt;/div&gt;&lt;/div&gt;&lt;/div&gt;" style="edgeLabel;html=1;align=left;verticalAlign=middle;resizable=0;points=[];" parent="tSk-btpLn09C0enWPSId-19" vertex="1" connectable="0">
          <mxGeometry x="-0.0835" relative="1" as="geometry">
            <mxPoint x="-78" y="46" as="offset" />
          </mxGeometry>
        </mxCell>
        <mxCell id="tSk-btpLn09C0enWPSId-28" style="edgeStyle=orthogonalEdgeStyle;rounded=0;orthogonalLoop=1;jettySize=auto;html=1;entryX=0.5;entryY=0;entryDx=0;entryDy=0;" parent="1" source="tSk-btpLn09C0enWPSId-24" target="tSk-btpLn09C0enWPSId-29" edge="1">
          <mxGeometry relative="1" as="geometry">
            <mxPoint x="710" y="505" as="targetPoint" />
          </mxGeometry>
        </mxCell>
        <mxCell id="tSk-btpLn09C0enWPSId-30" value="Saves to" style="edgeLabel;html=1;align=center;verticalAlign=middle;resizable=0;points=[];" parent="tSk-btpLn09C0enWPSId-28" vertex="1" connectable="0">
          <mxGeometry x="-0.208" y="-2" relative="1" as="geometry">
            <mxPoint x="2" y="2" as="offset" />
          </mxGeometry>
        </mxCell>
        <mxCell id="tSk-btpLn09C0enWPSId-24" value="Agent Executor" style="rounded=1;whiteSpace=wrap;html=1;" parent="1" vertex="1">
          <mxGeometry x="650" y="425" width="120" height="30" as="geometry" />
        </mxCell>
        <mxCell id="tSk-btpLn09C0enWPSId-29" value="ab.get_battle_id()&lt;div&gt;ab.get_agent_id()&lt;/div&gt;" style="rounded=1;whiteSpace=wrap;html=1;" parent="1" vertex="1">
          <mxGeometry x="650" y="495" width="120" height="40" as="geometry" />
        </mxCell>
        <mxCell id="tSk-btpLn09C0enWPSId-31" value="&lt;h1 style=&quot;margin-top: 0px;&quot;&gt;3. Kickoff (Green Only)&lt;/h1&gt;" style="text;html=1;whiteSpace=wrap;overflow=hidden;rounded=0;fillColor=#dae8fc;strokeColor=#6c8ebf;" parent="1" vertex="1">
          <mxGeometry x="60" y="560" width="160" height="70" as="geometry" />
        </mxCell>
        <mxCell id="tSk-btpLn09C0enWPSId-32" value="Backend" style="rounded=1;whiteSpace=wrap;html=1;" parent="1" vertex="1">
          <mxGeometry x="250" y="564" width="120" height="60" as="geometry" />
        </mxCell>
        <mxCell id="tSk-btpLn09C0enWPSId-33" value="" style="endArrow=classic;html=1;rounded=0;exitX=1;exitY=0.5;exitDx=0;exitDy=0;entryX=0;entryY=0.5;entryDx=0;entryDy=0;" parent="1" source="tSk-btpLn09C0enWPSId-32" target="tSk-btpLn09C0enWPSId-38" edge="1">
          <mxGeometry width="50" height="50" relative="1" as="geometry">
            <mxPoint x="650" y="634" as="sourcePoint" />
            <mxPoint x="600" y="594" as="targetPoint" />
          </mxGeometry>
        </mxCell>
        <mxCell id="tSk-btpLn09C0enWPSId-34" value="Kickoff Payload" style="edgeLabel;html=1;align=center;verticalAlign=middle;resizable=0;points=[];" parent="tSk-btpLn09C0enWPSId-33" vertex="1" connectable="0">
          <mxGeometry x="-0.0835" y="-2" relative="1" as="geometry">
            <mxPoint x="3" y="-12" as="offset" />
          </mxGeometry>
        </mxCell>
        <mxCell id="tSk-btpLn09C0enWPSId-35" value="&lt;div style=&quot;background-color: rgb(45, 42, 46); font-family: Consolas, &amp;quot;Courier New&amp;quot;, monospace; white-space-collapse: preserve; line-height: 100%; color: rgb(252, 252, 250);&quot;&gt;&lt;div style=&quot;&quot;&gt;&lt;div style=&quot;color: light-dark(rgb(252, 252, 250), rgb(20, 20, 18));&quot;&gt;&lt;div style=&quot;line-height: 100%;&quot;&gt;&lt;div style=&quot;&quot;&gt;&lt;font style=&quot;font-size: 9px;&quot;&gt;battle_info &lt;span style=&quot;color: rgb(255, 97, 136);&quot;&gt;=&lt;/span&gt; &lt;span style=&quot;color: rgb(147, 146, 147);&quot;&gt;{&lt;/span&gt;&lt;/font&gt;&lt;/div&gt;&lt;div style=&quot;&quot;&gt;&lt;font style=&quot;font-size: 9px;&quot;&gt;&amp;nbsp;   &lt;span style=&quot;color: rgb(147, 146, 147);&quot;&gt;&quot;&lt;/span&gt;&lt;span style=&quot;color: rgb(255, 216, 102);&quot;&gt;type&lt;/span&gt;&lt;span style=&quot;color: rgb(147, 146, 147);&quot;&gt;&quot;&lt;/span&gt;&lt;span style=&quot;color: rgb(147, 146, 147);&quot;&gt;:&lt;/span&gt; &lt;span style=&quot;color: rgb(147, 146, 147);&quot;&gt;&quot;&lt;/span&gt;&lt;span style=&quot;color: rgb(255, 216, 102);&quot;&gt;battle_start&lt;/span&gt;&lt;span style=&quot;color: rgb(147, 146, 147);&quot;&gt;&quot;&lt;/span&gt;&lt;span style=&quot;color: rgb(147, 146, 147);&quot;&gt;,&lt;/span&gt;&lt;/font&gt;&lt;/div&gt;&lt;div style=&quot;&quot;&gt;&lt;font style=&quot;font-size: 9px;&quot;&gt;&amp;nbsp; &amp;nbsp; &lt;span style=&quot;color: rgb(147, 146, 147);&quot;&gt;&quot;&lt;/span&gt;&lt;span style=&quot;color: rgb(255, 216, 102);&quot;&gt;battle_id&lt;/span&gt;&lt;span style=&quot;color: rgb(147, 146, 147);&quot;&gt;&quot;&lt;/span&gt;&lt;span style=&quot;color: rgb(147, 146, 147);&quot;&gt;:&lt;/span&gt; battle_id&lt;span style=&quot;color: rgb(147, 146, 147);&quot;&gt;,&lt;/span&gt;&lt;/font&gt;&lt;/div&gt;&lt;div style=&quot;&quot;&gt;&lt;font style=&quot;font-size: 9px;&quot;&gt;&amp;nbsp; &amp;nbsp; &lt;span style=&quot;color: rgb(147, 146, 147);&quot;&gt;&quot;&lt;/span&gt;&lt;span style=&quot;color: rgb(255, 216, 102);&quot;&gt;green_battle_context&lt;/span&gt;&lt;span style=&quot;color: rgb(147, 146, 147);&quot;&gt;&quot;&lt;/span&gt;&lt;span style=&quot;color: rgb(147, 146, 147);&quot;&gt;:&lt;/span&gt; &lt;span style=&quot;color: rgb(147, 146, 147);&quot;&gt;{&lt;/span&gt;&lt;/font&gt;&lt;/div&gt;&lt;div style=&quot;&quot;&gt;&lt;font style=&quot;font-size: 9px;&quot;&gt;&amp;nbsp;     &amp;nbsp; &lt;span style=&quot;color: rgb(147, 146, 147);&quot;&gt;&quot;&lt;/span&gt;&lt;span style=&quot;color: rgb(255, 216, 102);&quot;&gt;battle_id&lt;/span&gt;&lt;span style=&quot;color: rgb(147, 146, 147);&quot;&gt;&quot;&lt;/span&gt;&lt;span style=&quot;color: rgb(147, 146, 147);&quot;&gt;:&lt;/span&gt; green_context&lt;span style=&quot;color: rgb(147, 146, 147);&quot;&gt;.&lt;/span&gt;battle_id&lt;span style=&quot;color: rgb(147, 146, 147);&quot;&gt;,&lt;/span&gt;&lt;/font&gt;&lt;/div&gt;&lt;div style=&quot;&quot;&gt;&lt;font style=&quot;font-size: 9px;&quot;&gt;&amp;nbsp; &amp;nbsp; &amp;nbsp; &amp;nbsp; &lt;span style=&quot;color: rgb(147, 146, 147);&quot;&gt;&quot;&lt;/span&gt;&lt;span style=&quot;color: rgb(255, 216, 102);&quot;&gt;backend_url&lt;/span&gt;&lt;span style=&quot;color: rgb(147, 146, 147);&quot;&gt;&quot;&lt;/span&gt;&lt;span style=&quot;color: rgb(147, 146, 147);&quot;&gt;:&lt;/span&gt; green_context&lt;span style=&quot;color: rgb(147, 146, 147);&quot;&gt;.&lt;/span&gt;backend_url&lt;span style=&quot;color: rgb(147, 146, 147);&quot;&gt;,&lt;/span&gt;&lt;/font&gt;&lt;/div&gt;&lt;div style=&quot;&quot;&gt;&lt;font style=&quot;font-size: 9px;&quot;&gt;&amp;nbsp; &amp;nbsp; &amp;nbsp; &amp;nbsp; &lt;span style=&quot;color: rgb(147, 146, 147);&quot;&gt;&quot;&lt;/span&gt;&lt;span style=&quot;color: rgb(255, 216, 102);&quot;&gt;agent_name&lt;/span&gt;&lt;span style=&quot;color: rgb(147, 146, 147);&quot;&gt;&quot;&lt;/span&gt;&lt;span style=&quot;color: rgb(147, 146, 147);&quot;&gt;:&lt;/span&gt; green_context&lt;span style=&quot;color: rgb(147, 146, 147);&quot;&gt;.&lt;/span&gt;agent_name&lt;/font&gt;&lt;/div&gt;&lt;div style=&quot;&quot;&gt;&lt;font style=&quot;font-size: 9px;&quot;&gt;&amp;nbsp; &amp;nbsp; &lt;span style=&quot;color: rgb(147, 146, 147);&quot;&gt;},&lt;/span&gt;&lt;/font&gt;&lt;/div&gt;&lt;div style=&quot;&quot;&gt;&lt;font style=&quot;font-size: 9px;&quot;&gt;&amp;nbsp;   &lt;span style=&quot;color: rgb(147, 146, 147);&quot;&gt;&quot;&lt;/span&gt;&lt;span style=&quot;color: rgb(255, 216, 102);&quot;&gt;red_battle_contexts&lt;/span&gt;&lt;span style=&quot;color: rgb(147, 146, 147);&quot;&gt;&quot;&lt;/span&gt;&lt;span style=&quot;color: rgb(147, 146, 147);&quot;&gt;:&lt;/span&gt; &lt;span style=&quot;color: rgb(147, 146, 147);&quot;&gt;{&lt;/span&gt;&lt;/font&gt;&lt;/div&gt;&lt;div style=&quot;&quot;&gt;&lt;font style=&quot;font-size: 9px;&quot;&gt;&amp;nbsp; &amp;nbsp; &amp;nbsp;    url&lt;span style=&quot;color: rgb(147, 146, 147);&quot;&gt;:&lt;/span&gt; &lt;span style=&quot;color: rgb(147, 146, 147);&quot;&gt;{&lt;/span&gt;&lt;/font&gt;&lt;/div&gt;&lt;div style=&quot;&quot;&gt;&lt;font style=&quot;font-size: 9px;&quot;&gt;&amp;nbsp; &amp;nbsp; &amp;nbsp; &amp;nbsp; &amp;nbsp;    &lt;span style=&quot;color: rgb(147, 146, 147);&quot;&gt;&quot;&lt;/span&gt;&lt;span style=&quot;color: rgb(255, 216, 102);&quot;&gt;battle_id&lt;/span&gt;&lt;span style=&quot;color: rgb(147, 146, 147);&quot;&gt;&quot;&lt;/span&gt;&lt;span style=&quot;color: rgb(147, 146, 147);&quot;&gt;:&lt;/span&gt; ctx&lt;span style=&quot;color: rgb(147, 146, 147);&quot;&gt;.&lt;/span&gt;battle_id&lt;span style=&quot;color: rgb(147, 146, 147);&quot;&gt;,&lt;/span&gt;&lt;/font&gt;&lt;/div&gt;&lt;div style=&quot;&quot;&gt;&lt;font style=&quot;font-size: 9px;&quot;&gt;&amp;nbsp; &amp;nbsp; &amp;nbsp; &amp;nbsp; &amp;nbsp; &amp;nbsp; &amp;nbsp;&lt;span style=&quot;color: rgb(147, 146, 147);&quot;&gt;&quot;&lt;/span&gt;&lt;span style=&quot;color: rgb(255, 216, 102);&quot;&gt;backend_url&lt;/span&gt;&lt;span style=&quot;color: rgb(147, 146, 147);&quot;&gt;&quot;&lt;/span&gt;&lt;span style=&quot;color: rgb(147, 146, 147);&quot;&gt;:&lt;/span&gt; ctx&lt;span style=&quot;color: rgb(147, 146, 147);&quot;&gt;.&lt;/span&gt;backend_url&lt;span style=&quot;color: rgb(147, 146, 147);&quot;&gt;,&lt;/span&gt;&lt;/font&gt;&lt;/div&gt;&lt;div style=&quot;&quot;&gt;&lt;font style=&quot;font-size: 9px;&quot;&gt;&amp;nbsp; &amp;nbsp; &amp;nbsp; &amp;nbsp; &amp;nbsp; &amp;nbsp;&amp;nbsp; &lt;span style=&quot;color: rgb(147, 146, 147);&quot;&gt;&quot;&lt;/span&gt;&lt;span style=&quot;color: rgb(255, 216, 102);&quot;&gt;agent_name&lt;/span&gt;&lt;span style=&quot;color: rgb(147, 146, 147);&quot;&gt;&quot;&lt;/span&gt;&lt;span style=&quot;color: rgb(147, 146, 147);&quot;&gt;:&lt;/span&gt; ctx&lt;span style=&quot;color: rgb(147, 146, 147);&quot;&gt;.&lt;/span&gt;agent_name&lt;/font&gt;&lt;/div&gt;&lt;div style=&quot;&quot;&gt;&lt;font style=&quot;font-size: 9px;&quot;&gt;&amp;nbsp; &amp;nbsp; &amp;nbsp; &amp;nbsp;  &lt;span style=&quot;color: rgb(147, 146, 147);&quot;&gt;}&lt;/span&gt;&lt;/font&gt;&lt;/div&gt;&lt;div style=&quot;&quot;&gt;&lt;font style=&quot;font-size: 9px;&quot;&gt;&amp;nbsp; &amp;nbsp;    &amp;nbsp; &lt;span style=&quot;color: rgb(255, 97, 136);&quot;&gt;for&lt;/span&gt; url&lt;span style=&quot;color: rgb(147, 146, 147);&quot;&gt;,&lt;/span&gt; ctx &lt;span style=&quot;color: rgb(255, 97, 136);&quot;&gt;in&lt;/span&gt; red_contexts&lt;span style=&quot;color: rgb(147, 146, 147);&quot;&gt;.&lt;/span&gt;&lt;span style=&quot;color: rgb(169, 220, 118);&quot;&gt;items&lt;/span&gt;&lt;span style=&quot;color: rgb(147, 146, 147);&quot;&gt;()&lt;/span&gt;&lt;/font&gt;&lt;/div&gt;&lt;div style=&quot;&quot;&gt;&lt;font style=&quot;font-size: 9px;&quot;&gt;&amp;nbsp; &amp;nbsp;  &lt;span style=&quot;color: rgb(147, 146, 147);&quot;&gt;},&lt;/span&gt;&lt;/font&gt;&lt;/div&gt;&lt;div style=&quot;&quot;&gt;&lt;font style=&quot;font-size: 9px;&quot;&gt;&amp;nbsp; &amp;nbsp; &lt;span style=&quot;color: rgb(147, 146, 147);&quot;&gt;&quot;&lt;/span&gt;&lt;span style=&quot;color: rgb(255, 216, 102);&quot;&gt;opponent_infos&lt;/span&gt;&lt;span style=&quot;color: rgb(147, 146, 147);&quot;&gt;&quot;&lt;/span&gt;&lt;span style=&quot;color: rgb(147, 146, 147);&quot;&gt;:&lt;/span&gt; opponent_infos&lt;span style=&quot;color: rgb(147, 146, 147);&quot;&gt;,&lt;/span&gt;&lt;/font&gt;&lt;/div&gt;&lt;div style=&quot;&quot;&gt;&lt;font style=&quot;font-size: 9px;&quot;&gt;&lt;span style=&quot;color: rgb(147, 146, 147);&quot;&gt;}&lt;/span&gt;&lt;/font&gt;&lt;/div&gt;&lt;/div&gt;&lt;/div&gt;&lt;/div&gt;&lt;/div&gt;" style="edgeLabel;html=1;align=left;verticalAlign=middle;resizable=0;points=[];" parent="tSk-btpLn09C0enWPSId-33" vertex="1" connectable="0">
          <mxGeometry x="-0.0835" relative="1" as="geometry">
            <mxPoint x="-108" y="118" as="offset" />
          </mxGeometry>
        </mxCell>
        <mxCell id="tSk-btpLn09C0enWPSId-41" style="edgeStyle=orthogonalEdgeStyle;rounded=0;orthogonalLoop=1;jettySize=auto;html=1;entryX=0;entryY=0.5;entryDx=0;entryDy=0;" parent="1" source="tSk-btpLn09C0enWPSId-38" target="tSk-btpLn09C0enWPSId-39" edge="1">
          <mxGeometry relative="1" as="geometry" />
        </mxCell>
        <mxCell id="tSk-btpLn09C0enWPSId-43" value="Saves to" style="edgeLabel;html=1;align=center;verticalAlign=middle;resizable=0;points=[];" parent="tSk-btpLn09C0enWPSId-41" vertex="1" connectable="0">
          <mxGeometry x="0.1722" y="2" relative="1" as="geometry">
            <mxPoint x="-7" y="-6" as="offset" />
          </mxGeometry>
        </mxCell>
        <mxCell id="tSk-btpLn09C0enWPSId-38" value="Agent Executor" style="rounded=1;whiteSpace=wrap;html=1;" parent="1" vertex="1">
          <mxGeometry x="650" y="580" width="120" height="30" as="geometry" />
        </mxCell>
        <mxCell id="tSk-btpLn09C0enWPSId-39" value="" style="rounded=0;whiteSpace=wrap;html=1;" parent="1" vertex="1">
          <mxGeometry x="832" y="662" width="258" height="260" as="geometry" />
        </mxCell>
        <mxCell id="tSk-btpLn09C0enWPSId-44" value="&lt;div style=&quot;background-color: rgb(45, 42, 46); font-family: Consolas, &amp;quot;Courier New&amp;quot;, monospace; white-space-collapse: preserve; line-height: 100%; color: rgb(252, 252, 250);&quot;&gt;&lt;div style=&quot;&quot;&gt;&lt;div style=&quot;&quot;&gt;&lt;div style=&quot;line-height: 100%;&quot;&gt;&lt;div style=&quot;&quot;&gt;&lt;font style=&quot;font-size: 9px;&quot;&gt;&lt;span style=&quot;color: rgb(255, 97, 136);&quot;&gt;&lt;span style=&quot;color: rgb(147, 146, 147); background-color: light-dark(rgb(45, 42, 46), rgb(202, 199, 202));&quot;&gt;&quot;&lt;/span&gt;&lt;span style=&quot;color: rgb(255, 216, 102); background-color: light-dark(rgb(45, 42, 46), rgb(202, 199, 202));&quot;&gt;role&lt;/span&gt;&lt;span style=&quot;color: rgb(147, 146, 147); background-color: light-dark(rgb(45, 42, 46), rgb(202, 199, 202));&quot;&gt;&quot;&lt;/span&gt;&lt;span style=&quot;color: rgb(147, 146, 147); background-color: light-dark(rgb(45, 42, 46), rgb(202, 199, 202));&quot;&gt;:&lt;/span&gt;&lt;span style=&quot;color: light-dark(rgb(252, 252, 250), rgb(20, 20, 18)); background-color: light-dark(rgb(45, 42, 46), rgb(202, 199, 202));&quot;&gt; &lt;/span&gt;&lt;span style=&quot;color: rgb(147, 146, 147); background-color: light-dark(rgb(45, 42, 46), rgb(202, 199, 202));&quot;&gt;&quot;&lt;/span&gt;&lt;span style=&quot;background-color: light-dark(rgb(45, 42, 46), rgb(202, 199, 202)); color: rgb(147, 146, 147);&quot;&gt;&lt;font color=&quot;#ffd866&quot;&gt;user&lt;/font&gt;&lt;/span&gt;&lt;span style=&quot;color: rgb(147, 146, 147); background-color: light-dark(rgb(45, 42, 46), rgb(202, 199, 202));&quot;&gt;&quot;&lt;/span&gt;&lt;span style=&quot;color: rgb(147, 146, 147); background-color: light-dark(rgb(45, 42, 46), rgb(202, 199, 202));&quot;&gt;,&lt;/span&gt;&lt;/span&gt;&lt;/font&gt;&lt;/div&gt;&lt;div style=&quot;&quot;&gt;&lt;font style=&quot;font-size: 9px;&quot;&gt;&lt;span style=&quot;color: rgb(255, 97, 136);&quot;&gt;&lt;span style=&quot;color: rgb(147, 146, 147); background-color: light-dark(rgb(45, 42, 46), rgb(202, 199, 202));&quot;&gt;&quot;&lt;/span&gt;&lt;span style=&quot;background-color: light-dark(rgb(45, 42, 46), rgb(202, 199, 202)); color: rgb(147, 146, 147);&quot;&gt;&lt;font color=&quot;#ffd866&quot;&gt;content&lt;/font&gt;&lt;/span&gt;&lt;span style=&quot;color: rgb(147, 146, 147); background-color: light-dark(rgb(45, 42, 46), rgb(202, 199, 202));&quot;&gt;&quot;&lt;/span&gt;&lt;span style=&quot;color: rgb(147, 146, 147); background-color: light-dark(rgb(45, 42, 46), rgb(202, 199, 202));&quot;&gt;:&lt;/span&gt;&lt;span style=&quot;color: rgb(252, 252, 250); background-color: light-dark(rgb(45, 42, 46), rgb(202, 199, 202));&quot;&gt; &lt;/span&gt;&lt;span style=&quot;background-color: light-dark(rgb(45, 42, 46), rgb(202, 199, 202));&quot;&gt;&lt;font color=&quot;#939293&quot;&gt;&quot;&quot;&quot;&lt;/font&gt;&lt;/span&gt;&lt;/span&gt;&lt;/font&gt;&lt;/div&gt;&lt;div style=&quot;&quot;&gt;&lt;font style=&quot;font-size: 9px;&quot;&gt;&lt;span style=&quot;color: rgb(255, 97, 136);&quot;&gt;&lt;span style=&quot;color: rgb(147, 146, 147);&quot;&gt;{&lt;/span&gt;&lt;span style=&quot;background-color: light-dark(rgb(45, 42, 46), rgb(202, 199, 202));&quot;&gt;&lt;font color=&quot;#939293&quot;&gt;&lt;/font&gt;&lt;/span&gt;&lt;/span&gt;&lt;/font&gt;&lt;/div&gt;&lt;div style=&quot;color: light-dark(rgb(252, 252, 250), rgb(20, 20, 18));&quot;&gt;&lt;font style=&quot;font-size: 9px;&quot;&gt;&amp;nbsp;   &lt;span style=&quot;color: rgb(147, 146, 147);&quot;&gt;&quot;&lt;/span&gt;&lt;span style=&quot;color: rgb(255, 216, 102);&quot;&gt;type&lt;/span&gt;&lt;span style=&quot;color: rgb(147, 146, 147);&quot;&gt;&quot;&lt;/span&gt;&lt;span style=&quot;color: rgb(147, 146, 147);&quot;&gt;:&lt;/span&gt; &lt;span style=&quot;color: rgb(147, 146, 147);&quot;&gt;&quot;&lt;/span&gt;&lt;span style=&quot;color: rgb(255, 216, 102);&quot;&gt;battle_start&lt;/span&gt;&lt;span style=&quot;color: rgb(147, 146, 147);&quot;&gt;&quot;&lt;/span&gt;&lt;span style=&quot;color: rgb(147, 146, 147);&quot;&gt;,&lt;/span&gt;&lt;/font&gt;&lt;/div&gt;&lt;div style=&quot;color: light-dark(rgb(252, 252, 250), rgb(20, 20, 18));&quot;&gt;&lt;font style=&quot;font-size: 9px;&quot;&gt;&amp;nbsp; &amp;nbsp; &lt;span style=&quot;color: rgb(147, 146, 147);&quot;&gt;&quot;&lt;/span&gt;&lt;span style=&quot;color: rgb(255, 216, 102);&quot;&gt;battle_id&lt;/span&gt;&lt;span style=&quot;color: rgb(147, 146, 147);&quot;&gt;&quot;&lt;/span&gt;&lt;span style=&quot;color: rgb(147, 146, 147);&quot;&gt;:&lt;/span&gt; battle_id&lt;span style=&quot;color: rgb(147, 146, 147);&quot;&gt;,&lt;/span&gt;&lt;/font&gt;&lt;/div&gt;&lt;div style=&quot;color: light-dark(rgb(252, 252, 250), rgb(20, 20, 18));&quot;&gt;&lt;font style=&quot;font-size: 9px;&quot;&gt;&amp;nbsp; &amp;nbsp; &lt;span style=&quot;color: rgb(147, 146, 147);&quot;&gt;&quot;&lt;/span&gt;&lt;span style=&quot;color: rgb(255, 216, 102);&quot;&gt;green_battle_context&lt;/span&gt;&lt;span style=&quot;color: rgb(147, 146, 147);&quot;&gt;&quot;&lt;/span&gt;&lt;span style=&quot;color: rgb(147, 146, 147);&quot;&gt;:&lt;/span&gt; &lt;span style=&quot;color: rgb(147, 146, 147);&quot;&gt;{&lt;/span&gt;&lt;/font&gt;&lt;/div&gt;&lt;div style=&quot;color: light-dark(rgb(252, 252, 250), rgb(20, 20, 18));&quot;&gt;&lt;font style=&quot;font-size: 9px;&quot;&gt;&amp;nbsp;     &amp;nbsp; &lt;span style=&quot;color: rgb(147, 146, 147);&quot;&gt;&quot;&lt;/span&gt;&lt;span style=&quot;color: rgb(255, 216, 102);&quot;&gt;battle_id&lt;/span&gt;&lt;span style=&quot;color: rgb(147, 146, 147);&quot;&gt;&quot;&lt;/span&gt;&lt;span style=&quot;color: rgb(147, 146, 147);&quot;&gt;:&lt;/span&gt; green_context&lt;span style=&quot;color: rgb(147, 146, 147);&quot;&gt;.&lt;/span&gt;battle_id&lt;span style=&quot;color: rgb(147, 146, 147);&quot;&gt;,&lt;/span&gt;&lt;/font&gt;&lt;/div&gt;&lt;div style=&quot;color: light-dark(rgb(252, 252, 250), rgb(20, 20, 18));&quot;&gt;&lt;font style=&quot;font-size: 9px;&quot;&gt;&amp;nbsp; &amp;nbsp; &amp;nbsp; &amp;nbsp; &lt;span style=&quot;color: rgb(147, 146, 147);&quot;&gt;&quot;&lt;/span&gt;&lt;span style=&quot;color: rgb(255, 216, 102);&quot;&gt;backend_url&lt;/span&gt;&lt;span style=&quot;color: rgb(147, 146, 147);&quot;&gt;&quot;&lt;/span&gt;&lt;span style=&quot;color: rgb(147, 146, 147);&quot;&gt;:&lt;/span&gt; green_context&lt;span style=&quot;color: rgb(147, 146, 147);&quot;&gt;.&lt;/span&gt;backend_url&lt;span style=&quot;color: rgb(147, 146, 147);&quot;&gt;,&lt;/span&gt;&lt;/font&gt;&lt;/div&gt;&lt;div style=&quot;color: light-dark(rgb(252, 252, 250), rgb(20, 20, 18));&quot;&gt;&lt;font style=&quot;font-size: 9px;&quot;&gt;&amp;nbsp; &amp;nbsp; &amp;nbsp; &amp;nbsp; &lt;span style=&quot;color: rgb(147, 146, 147);&quot;&gt;&quot;&lt;/span&gt;&lt;span style=&quot;color: rgb(255, 216, 102);&quot;&gt;agent_name&lt;/span&gt;&lt;span style=&quot;color: rgb(147, 146, 147);&quot;&gt;&quot;&lt;/span&gt;&lt;span style=&quot;color: rgb(147, 146, 147);&quot;&gt;:&lt;/span&gt; green_context&lt;span style=&quot;color: rgb(147, 146, 147);&quot;&gt;.&lt;/span&gt;agent_name&lt;/font&gt;&lt;/div&gt;&lt;div style=&quot;color: light-dark(rgb(252, 252, 250), rgb(20, 20, 18));&quot;&gt;&lt;font style=&quot;font-size: 9px;&quot;&gt;&amp;nbsp; &amp;nbsp; &lt;span style=&quot;color: rgb(147, 146, 147);&quot;&gt;},&lt;/span&gt;&lt;/font&gt;&lt;/div&gt;&lt;div style=&quot;color: light-dark(rgb(252, 252, 250), rgb(20, 20, 18));&quot;&gt;&lt;font style=&quot;font-size: 9px;&quot;&gt;&amp;nbsp;   &lt;span style=&quot;color: rgb(147, 146, 147);&quot;&gt;&quot;&lt;/span&gt;&lt;span style=&quot;color: rgb(255, 216, 102);&quot;&gt;red_battle_contexts&lt;/span&gt;&lt;span style=&quot;color: rgb(147, 146, 147);&quot;&gt;&quot;&lt;/span&gt;&lt;span style=&quot;color: rgb(147, 146, 147);&quot;&gt;:&lt;/span&gt; &lt;span style=&quot;color: rgb(147, 146, 147);&quot;&gt;{&lt;/span&gt;&lt;/font&gt;&lt;/div&gt;&lt;div style=&quot;color: light-dark(rgb(252, 252, 250), rgb(20, 20, 18));&quot;&gt;&lt;font style=&quot;font-size: 9px;&quot;&gt;&amp;nbsp; &amp;nbsp; &amp;nbsp;    url&lt;span style=&quot;color: rgb(147, 146, 147);&quot;&gt;:&lt;/span&gt; &lt;span style=&quot;color: rgb(147, 146, 147);&quot;&gt;{&lt;/span&gt;&lt;/font&gt;&lt;/div&gt;&lt;div style=&quot;color: light-dark(rgb(252, 252, 250), rgb(20, 20, 18));&quot;&gt;&lt;font style=&quot;font-size: 9px;&quot;&gt;&amp;nbsp; &amp;nbsp; &amp;nbsp; &amp;nbsp; &amp;nbsp;    &lt;span style=&quot;color: rgb(147, 146, 147);&quot;&gt;&quot;&lt;/span&gt;&lt;span style=&quot;color: rgb(255, 216, 102);&quot;&gt;battle_id&lt;/span&gt;&lt;span style=&quot;color: rgb(147, 146, 147);&quot;&gt;&quot;&lt;/span&gt;&lt;span style=&quot;color: rgb(147, 146, 147);&quot;&gt;:&lt;/span&gt; ctx&lt;span style=&quot;color: rgb(147, 146, 147);&quot;&gt;.&lt;/span&gt;battle_id&lt;span style=&quot;color: rgb(147, 146, 147);&quot;&gt;,&lt;/span&gt;&lt;/font&gt;&lt;/div&gt;&lt;div style=&quot;color: light-dark(rgb(252, 252, 250), rgb(20, 20, 18));&quot;&gt;&lt;font style=&quot;font-size: 9px;&quot;&gt;&amp;nbsp; &amp;nbsp; &amp;nbsp; &amp;nbsp; &amp;nbsp; &amp;nbsp; &amp;nbsp;&lt;span style=&quot;color: rgb(147, 146, 147);&quot;&gt;&quot;&lt;/span&gt;&lt;span style=&quot;color: rgb(255, 216, 102);&quot;&gt;backend_url&lt;/span&gt;&lt;span style=&quot;color: rgb(147, 146, 147);&quot;&gt;&quot;&lt;/span&gt;&lt;span style=&quot;color: rgb(147, 146, 147);&quot;&gt;:&lt;/span&gt; ctx&lt;span style=&quot;color: rgb(147, 146, 147);&quot;&gt;.&lt;/span&gt;backend_url&lt;span style=&quot;color: rgb(147, 146, 147);&quot;&gt;,&lt;/span&gt;&lt;/font&gt;&lt;/div&gt;&lt;div style=&quot;color: light-dark(rgb(252, 252, 250), rgb(20, 20, 18));&quot;&gt;&lt;font style=&quot;font-size: 9px;&quot;&gt;&amp;nbsp; &amp;nbsp; &amp;nbsp; &amp;nbsp; &amp;nbsp; &amp;nbsp;&amp;nbsp; &lt;span style=&quot;color: rgb(147, 146, 147);&quot;&gt;&quot;&lt;/span&gt;&lt;span style=&quot;color: rgb(255, 216, 102);&quot;&gt;agent_name&lt;/span&gt;&lt;span style=&quot;color: rgb(147, 146, 147);&quot;&gt;&quot;&lt;/span&gt;&lt;span style=&quot;color: rgb(147, 146, 147);&quot;&gt;:&lt;/span&gt; ctx&lt;span style=&quot;color: rgb(147, 146, 147);&quot;&gt;.&lt;/span&gt;agent_name&lt;/font&gt;&lt;/div&gt;&lt;div style=&quot;color: light-dark(rgb(252, 252, 250), rgb(20, 20, 18));&quot;&gt;&lt;font style=&quot;font-size: 9px;&quot;&gt;&amp;nbsp; &amp;nbsp; &amp;nbsp; &amp;nbsp;  &lt;span style=&quot;color: rgb(147, 146, 147);&quot;&gt;}&lt;/span&gt;&lt;/font&gt;&lt;/div&gt;&lt;div style=&quot;color: light-dark(rgb(252, 252, 250), rgb(20, 20, 18));&quot;&gt;&lt;font style=&quot;font-size: 9px;&quot;&gt;&amp;nbsp; &amp;nbsp;    &amp;nbsp; &lt;span style=&quot;color: rgb(255, 97, 136);&quot;&gt;for&lt;/span&gt; url&lt;span style=&quot;color: rgb(147, 146, 147);&quot;&gt;,&lt;/span&gt; ctx &lt;span style=&quot;color: rgb(255, 97, 136);&quot;&gt;in&lt;/span&gt; red_contexts&lt;span style=&quot;color: rgb(147, 146, 147);&quot;&gt;.&lt;/span&gt;&lt;span style=&quot;color: rgb(169, 220, 118);&quot;&gt;items&lt;/span&gt;&lt;span style=&quot;color: rgb(147, 146, 147);&quot;&gt;()&lt;/span&gt;&lt;/font&gt;&lt;/div&gt;&lt;div style=&quot;color: light-dark(rgb(252, 252, 250), rgb(20, 20, 18));&quot;&gt;&lt;font style=&quot;font-size: 9px;&quot;&gt;&amp;nbsp; &amp;nbsp;  &lt;span style=&quot;color: rgb(147, 146, 147);&quot;&gt;},&lt;/span&gt;&lt;/font&gt;&lt;/div&gt;&lt;div style=&quot;color: light-dark(rgb(252, 252, 250), rgb(20, 20, 18));&quot;&gt;&lt;font style=&quot;font-size: 9px;&quot;&gt;&amp;nbsp; &amp;nbsp; &lt;span style=&quot;color: rgb(147, 146, 147);&quot;&gt;&quot;&lt;/span&gt;&lt;span style=&quot;color: rgb(255, 216, 102);&quot;&gt;opponent_infos&lt;/span&gt;&lt;span style=&quot;color: rgb(147, 146, 147);&quot;&gt;&quot;&lt;/span&gt;&lt;span style=&quot;color: rgb(147, 146, 147);&quot;&gt;:&lt;/span&gt; opponent_infos&lt;span style=&quot;color: rgb(147, 146, 147);&quot;&gt;,&lt;/span&gt;&lt;/font&gt;&lt;/div&gt;&lt;div style=&quot;color: light-dark(rgb(252, 252, 250), rgb(20, 20, 18));&quot;&gt;&lt;font style=&quot;font-size: 9px;&quot;&gt;&lt;span style=&quot;color: rgb(147, 146, 147);&quot;&gt;}&lt;/span&gt;&lt;/font&gt;&lt;/div&gt;&lt;div style=&quot;color: light-dark(rgb(252, 252, 250), rgb(20, 20, 18));&quot;&gt;&lt;font style=&quot;font-size: 9px;&quot;&gt;&lt;span style=&quot;color: rgb(147, 146, 147);&quot;&gt;&quot;&quot;&quot;&lt;/span&gt;&lt;/font&gt;&lt;/div&gt;&lt;/div&gt;&lt;/div&gt;&lt;/div&gt;&lt;/div&gt;" style="edgeLabel;html=1;align=left;verticalAlign=middle;resizable=0;points=[];" parent="1" vertex="1" connectable="0">
          <mxGeometry x="839" y="791" as="geometry" />
        </mxCell>
        <mxCell id="tSk-btpLn09C0enWPSId-47" value="&lt;div style=&quot;color: rgb(252, 252, 250); font-family: Consolas, &amp;quot;Courier New&amp;quot;, monospace; font-size: 11px; text-align: left; white-space: pre; background-color: rgb(45, 42, 46);&quot;&gt;&lt;font style=&quot;font-size: 9px;&quot;&gt;&lt;span style=&quot;color: rgb(255, 97, 136);&quot;&gt;&lt;span style=&quot;color: rgb(147, 146, 147); background-color: light-dark(rgb(45, 42, 46), rgb(202, 199, 202));&quot;&gt;&quot;&lt;/span&gt;&lt;span style=&quot;color: rgb(255, 216, 102); background-color: light-dark(rgb(45, 42, 46), rgb(202, 199, 202));&quot;&gt;role&lt;/span&gt;&lt;span style=&quot;color: rgb(147, 146, 147); background-color: light-dark(rgb(45, 42, 46), rgb(202, 199, 202));&quot;&gt;&quot;&lt;/span&gt;&lt;span style=&quot;color: rgb(147, 146, 147); background-color: light-dark(rgb(45, 42, 46), rgb(202, 199, 202));&quot;&gt;:&lt;/span&gt;&lt;span style=&quot;color: light-dark(rgb(252, 252, 250), rgb(20, 20, 18)); background-color: light-dark(rgb(45, 42, 46), rgb(202, 199, 202));&quot;&gt; &lt;/span&gt;&lt;span style=&quot;color: rgb(147, 146, 147); background-color: light-dark(rgb(45, 42, 46), rgb(202, 199, 202));&quot;&gt;&quot;&lt;/span&gt;&lt;/span&gt;&lt;/font&gt;&lt;span style=&quot;color: rgb(255, 216, 102); font-size: 9px;&quot;&gt;system&lt;/span&gt;&lt;span style=&quot;font-size: 9px; color: rgb(147, 146, 147); background-color: light-dark(rgb(45, 42, 46), rgb(202, 199, 202));&quot;&gt;&quot;&lt;/span&gt;&lt;span style=&quot;font-size: 9px; color: rgb(147, 146, 147); background-color: light-dark(rgb(45, 42, 46), rgb(202, 199, 202));&quot;&gt;,&lt;/span&gt;&lt;/div&gt;&lt;div style=&quot;color: rgb(252, 252, 250); font-family: Consolas, &amp;quot;Courier New&amp;quot;, monospace; font-size: 11px; text-align: left; white-space: pre; background-color: rgb(45, 42, 46);&quot;&gt;&lt;font style=&quot;color: light-dark(rgb(252, 252, 250), rgb(20, 20, 18)); font-size: 9px;&quot;&gt;&lt;span style=&quot;color: rgb(255, 97, 136);&quot;&gt;&lt;span style=&quot;color: rgb(147, 146, 147); background-color: light-dark(rgb(45, 42, 46), rgb(202, 199, 202));&quot;&gt;&lt;span style=&quot;color: rgb(147, 146, 147); background-color: light-dark(rgb(45, 42, 46), rgb(202, 199, 202));&quot;&gt;&quot;&lt;/span&gt;&lt;/span&gt;&lt;/span&gt;&lt;/font&gt;&lt;span style=&quot;color: rgb(255, 216, 102); font-size: 9px;&quot;&gt;content&lt;/span&gt;&lt;font style=&quot;color: light-dark(rgb(252, 252, 250), rgb(20, 20, 18)); font-size: 9px;&quot;&gt;&lt;span style=&quot;color: rgb(255, 97, 136);&quot;&gt;&lt;span style=&quot;color: rgb(147, 146, 147); background-color: light-dark(rgb(45, 42, 46), rgb(202, 199, 202));&quot;&gt;&lt;span style=&quot;color: rgb(147, 146, 147); background-color: light-dark(rgb(45, 42, 46), rgb(202, 199, 202));&quot;&gt;&quot;&lt;/span&gt;:&lt;/span&gt;&lt;span style=&quot;color: rgb(252, 252, 250); background-color: light-dark(rgb(45, 42, 46), rgb(202, 199, 202));&quot;&gt; &lt;/span&gt;&lt;/span&gt;&lt;/font&gt;&lt;span style=&quot;color: rgb(147, 146, 147); font-size: 9px;&quot;&gt;&quot;&quot;&quot;&lt;/span&gt;&lt;/div&gt;&lt;div style=&quot;color: light-dark(rgb(252, 252, 250), rgb(20, 20, 18)); font-family: Consolas, &amp;quot;Courier New&amp;quot;, monospace; font-size: 11px; text-align: left; white-space: pre; background-color: rgb(45, 42, 46);&quot;&gt;&lt;font style=&quot;font-size: 9px;&quot;&gt;&amp;nbsp;   &lt;span style=&quot;color: rgb(147, 146, 147);&quot;&gt;&quot;&lt;/span&gt;&lt;span style=&quot;color: rgb(255, 216, 102);&quot;&gt;system_prompt&lt;/span&gt;&lt;span style=&quot;color: rgb(147, 146, 147);&quot;&gt;&quot;&lt;/span&gt;&lt;span style=&quot;color: rgb(147, 146, 147);&quot;&gt;:&lt;/span&gt; &lt;/font&gt;&lt;span style=&quot;font-size: 9px;&quot;&gt;agent_card&lt;/span&gt;&lt;span style=&quot;color: rgb(147, 146, 147); font-size: 9px;&quot;&gt;.&lt;/span&gt;&lt;span style=&quot;font-size: 9px;&quot;&gt;description&lt;/span&gt;&lt;span style=&quot;font-size: 9px; color: rgb(147, 146, 147);&quot;&gt;,&lt;/span&gt;&lt;/div&gt;&lt;div style=&quot;color: light-dark(rgb(252, 252, 250), rgb(20, 20, 18)); font-family: Consolas, &amp;quot;Courier New&amp;quot;, monospace; font-size: 11px; text-align: left; white-space: pre; background-color: rgb(45, 42, 46);&quot;&gt;&lt;font style=&quot;font-size: 9px;&quot;&gt;&amp;nbsp; &amp;nbsp; &lt;span style=&quot;color: rgb(147, 146, 147);&quot;&gt;&quot;&lt;/span&gt;&lt;span style=&quot;color: rgb(255, 216, 102);&quot;&gt;skills&lt;/span&gt;&lt;span style=&quot;color: rgb(147, 146, 147);&quot;&gt;&quot;&lt;/span&gt;&lt;span style=&quot;color: rgb(147, 146, 147);&quot;&gt;:&lt;/span&gt; agent_card&lt;/font&gt;&lt;span style=&quot;color: rgb(147, 146, 147); font-size: 9px;&quot;&gt;.&lt;/span&gt;&lt;span style=&quot;font-size: 9px; color: light-dark(rgb(252, 252, 250), rgb(20, 20, 18));&quot;&gt;skills&lt;/span&gt;&lt;span style=&quot;font-size: 9px; color: rgb(147, 146, 147);&quot;&gt;,&lt;/span&gt;&lt;/div&gt;&lt;div style=&quot;color: light-dark(rgb(252, 252, 250), rgb(20, 20, 18)); font-family: Consolas, &amp;quot;Courier New&amp;quot;, monospace; font-size: 11px; text-align: left; white-space: pre; background-color: rgb(45, 42, 46);&quot;&gt;&lt;font style=&quot;font-size: 9px;&quot;&gt;&lt;span style=&quot;color: rgb(147, 146, 147);&quot;&gt;&quot;&quot;&quot;&lt;/span&gt;&lt;/font&gt;&lt;/div&gt;" style="rounded=0;whiteSpace=wrap;html=1;" parent="1" vertex="1">
          <mxGeometry x="830" y="405" width="260" height="77" as="geometry" />
        </mxCell>
        <mxCell id="tSk-btpLn09C0enWPSId-48" value="&lt;div style=&quot;color: rgb(252, 252, 250); font-family: Consolas, &amp;quot;Courier New&amp;quot;, monospace; font-size: 11px; text-align: left; white-space: pre; background-color: rgb(45, 42, 46);&quot;&gt;&lt;font style=&quot;font-size: 9px;&quot;&gt;&lt;span style=&quot;color: rgb(255, 97, 136);&quot;&gt;&lt;span style=&quot;color: rgb(147, 146, 147); background-color: light-dark(rgb(45, 42, 46), rgb(202, 199, 202));&quot;&gt;&quot;&lt;/span&gt;&lt;span style=&quot;color: rgb(255, 216, 102); background-color: light-dark(rgb(45, 42, 46), rgb(202, 199, 202));&quot;&gt;role&lt;/span&gt;&lt;span style=&quot;color: rgb(147, 146, 147); background-color: light-dark(rgb(45, 42, 46), rgb(202, 199, 202));&quot;&gt;&quot;&lt;/span&gt;&lt;span style=&quot;color: rgb(147, 146, 147); background-color: light-dark(rgb(45, 42, 46), rgb(202, 199, 202));&quot;&gt;:&lt;/span&gt;&lt;span style=&quot;color: light-dark(rgb(252, 252, 250), rgb(20, 20, 18)); background-color: light-dark(rgb(45, 42, 46), rgb(202, 199, 202));&quot;&gt; &lt;/span&gt;&lt;span style=&quot;color: rgb(147, 146, 147); background-color: light-dark(rgb(45, 42, 46), rgb(202, 199, 202));&quot;&gt;&quot;&lt;/span&gt;&lt;/span&gt;&lt;/font&gt;&lt;span style=&quot;color: rgb(255, 216, 102); font-size: 9px;&quot;&gt;system&lt;/span&gt;&lt;span style=&quot;font-size: 9px; color: rgb(147, 146, 147); background-color: light-dark(rgb(45, 42, 46), rgb(202, 199, 202));&quot;&gt;&quot;&lt;/span&gt;&lt;span style=&quot;font-size: 9px; color: rgb(147, 146, 147); background-color: light-dark(rgb(45, 42, 46), rgb(202, 199, 202));&quot;&gt;,&lt;/span&gt;&lt;/div&gt;&lt;div style=&quot;color: rgb(252, 252, 250); font-family: Consolas, &amp;quot;Courier New&amp;quot;, monospace; font-size: 11px; text-align: left; white-space: pre; background-color: rgb(45, 42, 46);&quot;&gt;&lt;font style=&quot;color: light-dark(rgb(252, 252, 250), rgb(20, 20, 18)); font-size: 9px;&quot;&gt;&lt;span style=&quot;color: rgb(255, 97, 136);&quot;&gt;&lt;span style=&quot;color: rgb(147, 146, 147); background-color: light-dark(rgb(45, 42, 46), rgb(202, 199, 202));&quot;&gt;&lt;span style=&quot;color: rgb(147, 146, 147); background-color: light-dark(rgb(45, 42, 46), rgb(202, 199, 202));&quot;&gt;&quot;&lt;/span&gt;&lt;/span&gt;&lt;/span&gt;&lt;/font&gt;&lt;span style=&quot;color: rgb(255, 216, 102); font-size: 9px;&quot;&gt;content&lt;/span&gt;&lt;font style=&quot;color: light-dark(rgb(252, 252, 250), rgb(20, 20, 18)); font-size: 9px;&quot;&gt;&lt;span style=&quot;color: rgb(255, 97, 136);&quot;&gt;&lt;span style=&quot;color: rgb(147, 146, 147); background-color: light-dark(rgb(45, 42, 46), rgb(202, 199, 202));&quot;&gt;&lt;span style=&quot;color: rgb(147, 146, 147); background-color: light-dark(rgb(45, 42, 46), rgb(202, 199, 202));&quot;&gt;&quot;&lt;/span&gt;:&lt;/span&gt;&lt;span style=&quot;color: rgb(252, 252, 250); background-color: light-dark(rgb(45, 42, 46), rgb(202, 199, 202));&quot;&gt; &lt;/span&gt;&lt;/span&gt;&lt;/font&gt;&lt;span style=&quot;color: rgb(147, 146, 147); font-size: 9px;&quot;&gt;&quot;&quot;&quot;&lt;/span&gt;&lt;/div&gt;&lt;div style=&quot;color: light-dark(rgb(252, 252, 250), rgb(20, 20, 18)); font-family: Consolas, &amp;quot;Courier New&amp;quot;, monospace; font-size: 11px; text-align: left; white-space: pre; background-color: rgb(45, 42, 46);&quot;&gt;&lt;font style=&quot;font-size: 9px;&quot;&gt;&amp;nbsp;   &lt;span style=&quot;color: rgb(147, 146, 147);&quot;&gt;&quot;&lt;/span&gt;&lt;span style=&quot;color: rgb(255, 216, 102);&quot;&gt;system_prompt&lt;/span&gt;&lt;span style=&quot;color: rgb(147, 146, 147);&quot;&gt;&quot;&lt;/span&gt;&lt;span style=&quot;color: rgb(147, 146, 147);&quot;&gt;:&lt;/span&gt; &lt;/font&gt;&lt;span style=&quot;font-size: 9px;&quot;&gt;agent_card&lt;/span&gt;&lt;span style=&quot;color: rgb(147, 146, 147); font-size: 9px;&quot;&gt;.&lt;/span&gt;&lt;span style=&quot;font-size: 9px;&quot;&gt;description&lt;/span&gt;&lt;span style=&quot;font-size: 9px; color: rgb(147, 146, 147);&quot;&gt;,&lt;/span&gt;&lt;/div&gt;&lt;div style=&quot;color: light-dark(rgb(252, 252, 250), rgb(20, 20, 18)); font-family: Consolas, &amp;quot;Courier New&amp;quot;, monospace; font-size: 11px; text-align: left; white-space: pre; background-color: rgb(45, 42, 46);&quot;&gt;&lt;font style=&quot;font-size: 9px;&quot;&gt;&amp;nbsp; &amp;nbsp; &lt;span style=&quot;color: rgb(147, 146, 147);&quot;&gt;&quot;&lt;/span&gt;&lt;span style=&quot;color: rgb(255, 216, 102);&quot;&gt;skills&lt;/span&gt;&lt;span style=&quot;color: rgb(147, 146, 147);&quot;&gt;&quot;&lt;/span&gt;&lt;span style=&quot;color: rgb(147, 146, 147);&quot;&gt;:&lt;/span&gt; agent_card&lt;/font&gt;&lt;span style=&quot;color: rgb(147, 146, 147); font-size: 9px;&quot;&gt;.&lt;/span&gt;&lt;span style=&quot;font-size: 9px; color: light-dark(rgb(252, 252, 250), rgb(20, 20, 18));&quot;&gt;skills&lt;/span&gt;&lt;span style=&quot;font-size: 9px; color: rgb(147, 146, 147);&quot;&gt;,&lt;/span&gt;&lt;/div&gt;&lt;div style=&quot;color: light-dark(rgb(252, 252, 250), rgb(20, 20, 18)); font-family: Consolas, &amp;quot;Courier New&amp;quot;, monospace; font-size: 11px; text-align: left; white-space: pre; background-color: rgb(45, 42, 46);&quot;&gt;&lt;font style=&quot;font-size: 9px;&quot;&gt;&lt;span style=&quot;color: rgb(147, 146, 147);&quot;&gt;&quot;&quot;&quot;&lt;/span&gt;&lt;/font&gt;&lt;/div&gt;" style="rounded=0;whiteSpace=wrap;html=1;" parent="1" vertex="1">
          <mxGeometry x="832" y="560" width="258" height="80" as="geometry" />
        </mxCell>
        <mxCell id="tSk-btpLn09C0enWPSId-49" value="" style="shape=image;html=1;verticalAlign=top;verticalLabelPosition=bottom;labelBackgroundColor=#ffffff;imageAspect=0;aspect=fixed;image=https://icons.diagrams.net/icon-cache1/Math___Business-2705/1_1-1014.svg" parent="1" vertex="1">
          <mxGeometry x="1112.71" y="636" width="38.58" height="39" as="geometry" />
        </mxCell>
        <mxCell id="tSk-btpLn09C0enWPSId-50" value="（Agent Card)" style="text;html=1;align=center;verticalAlign=middle;whiteSpace=wrap;rounded=0;" parent="1" vertex="1">
          <mxGeometry x="1080" y="260" width="90" height="30" as="geometry" />
        </mxCell>
        <mxCell id="tSk-btpLn09C0enWPSId-51" value="（Agent Card)" style="text;html=1;align=center;verticalAlign=middle;whiteSpace=wrap;rounded=0;" parent="1" vertex="1">
          <mxGeometry x="1081" y="427" width="90" height="30" as="geometry" />
        </mxCell>
        <mxCell id="tSk-btpLn09C0enWPSId-52" value="（Agent Card)" style="text;html=1;align=center;verticalAlign=middle;whiteSpace=wrap;rounded=0;" parent="1" vertex="1">
          <mxGeometry x="1081" y="590" width="90" height="30" as="geometry" />
        </mxCell>
        <mxCell id="tSk-btpLn09C0enWPSId-53" value="(Kickoff Payload)" style="text;html=1;align=center;verticalAlign=middle;whiteSpace=wrap;rounded=0;" parent="1" vertex="1">
          <mxGeometry x="1079" y="689" width="120" height="30" as="geometry" />
        </mxCell>
      </root>
    </mxGraphModel>
  </diagram>
</mxfile>
